HIERARCHY
ROOT Hips
{
  OFFSET -32.5998 29.0326 120.673
  CHANNELS 6 Xposition Yposition Zposition Zrotation Xrotation Yrotation
  JOINT LeftUpLeg
  {
    OFFSET 8.64259 1.95398 -2.38835
    CHANNELS 3 Zrotation Xrotation Yrotation
    JOINT LeftLeg
    {
      OFFSET 43.7702 0 0
      CHANNELS 3 Zrotation Xrotation Yrotation
      JOINT LeftFoot
      {
        OFFSET 40.6238 0 0
        CHANNELS 3 Zrotation Xrotation Yrotation
        JOINT LeftToeBase
        {
          OFFSET 12.7242 0 0
          CHANNELS 3 Zrotation Xrotation Yrotation
          End Site
          {
            OFFSET 0 0 0
          }
        }
      }
    }
  }
  JOINT RightUpLeg
  {
    OFFSET -8.2249 1.95398 -2.59336
    CHANNELS 3 Zrotation Xrotation Yrotation
    JOINT RightLeg
    {
      OFFSET 43.5653 0 0
      CHANNELS 3 Zrotation Xrotation Yrotation
      JOINT RightFoot
      {
        OFFSET 40.6238 0 0
        CHANNELS 3 Zrotation Xrotation Yrotation
        JOINT RightToeBase
        {
          OFFSET 12.7242 0 0
          CHANNELS 3 Zrotation Xrotation Yrotation
          End Site
          {
            OFFSET 0 0 0
          }
        }
      }
    }
  }
  JOINT Spine
  {
    OFFSET 0.165834 0.87714 6.61349
    CHANNELS 3 Zrotation Xrotation Yrotation
    JOINT Spine1
    {
      OFFSET 7.38963 1.71661e-005 0
      CHANNELS 3 Zrotation Xrotation Yrotation
      JOINT Spine2
      {
        OFFSET 11.9445 1.14441e-005 0
        CHANNELS 3 Zrotation Xrotation Yrotation
        JOINT Spine3
        {
          OFFSET 14.7254 4.19617e-005 0
          CHANNELS 3 Zrotation Xrotation Yrotation
          JOINT Spine4
          {
            OFFSET 10.9679 0 0
            CHANNELS 3 Zrotation Xrotation Yrotation
            JOINT RightShoulder
            {
              OFFSET 2.46616 -1.6653 3.69651
              CHANNELS 3 Zrotation Xrotation Yrotation
              JOINT RightArm
              {
                OFFSET 13.0012 0 0
                CHANNELS 3 Zrotation Xrotation Yrotation
                JOINT RightForeArm
                {
                  OFFSET 28.7848 1.62311e-005 0
                  CHANNELS 3 Zrotation Xrotation Yrotation
                  JOINT RightHand
                  {
                    OFFSET 26.5688 1.62095e-005 0
                    CHANNELS 3 Zrotation Xrotation Yrotation
                    End Site
                    {
                      OFFSET 0 0 0
                    }
                  }
                }
              }
            }
            JOINT LeftShoulder
            {
              OFFSET 2.38034 -1.29275 -3.7523
              CHANNELS 3 Zrotation Xrotation Yrotation
              JOINT LeftArm
              {
                OFFSET 16.3182 6.07031e-005 0
                CHANNELS 3 Zrotation Xrotation Yrotation
                JOINT LeftForeArm
                {
                  OFFSET 27.0901 0 0
                  CHANNELS 3 Zrotation Xrotation Yrotation
                  JOINT LeftHand
                  {
                    OFFSET 24.5451 1.51738e-005 0
                    CHANNELS 3 Zrotation Xrotation Yrotation
                    End Site
                    {
                      OFFSET 0 0 0
                    }
                  }
                }
              }
            }
            JOINT Neck
            {
              OFFSET 5.0226 -0.0266342 0
              CHANNELS 3 Zrotation Xrotation Yrotation
              JOINT Head
              {
                OFFSET 6.69364 2.86102e-005 0
                CHANNELS 3 Zrotation Xrotation Yrotation
                End Site
                {
                  OFFSET 0 0 0
                }
              }
            }
          }
        }
      }
    }
  }
}
MOTION
Frames:	15
Frame Time:	0.0416667
36.9882 29.825 34.6264 -3.04264 -15.2831 -1.06997 -175.15 -0.965651 89.8986 -17.57 28.8476 1.72901 86.4342 19.507 4.43363 27.9421 2.57833 -6.9851 174.879 -5.65827 92.056 -8.57689 -17.2096 -0.868314 87.014 -20.3986 -1.69725 50.4081 -9.38847 -2.08015 0.827356 7.58295 -90.18 11.7127 1.56113 -0.523731 0.0425925 1.53657 -0.591947 -22.5001 1.64633 -0.0302144 -2.48742 1.64633 -0.0302184 97.879 -7.62169 -95.8662 5.42468 -4.55369 -19.1517 -50.7191 14.5302 -93.0758 -32.0213 -11.2219 33.2443 -83.0639 -25.2209 85.9005 39.744 53.1965 -56.3888 28.4281 18.8736 -46.2655 -32.2763 19.8349 -71.0214 23.3077 -0.64375 -1.21949 -0.30323 -0.15714 1.70319 
37.0774 25.5556 35.1622 -1.87211 -14.9762 -1.11079 -175.12 -3.78974 90.7773 -17.4451 33.0345 2.26199 88.1442 21.2508 4.96061 26.3416 -1.66897 1.53336 176.032 -8.24766 92.4673 -8.99356 -15.4648 -2.69664 89.0262 -22.924 -3.72697 49.7449 -9.19071 2.14665 0.757229 7.37331 -90.1585 12.131 1.43036 -0.474314 0.460735 1.40809 -0.536829 -22.0807 1.50676 -0.0224151 -2.06807 1.50676 -0.0224269 98.3701 -8.20365 -94.1404 6.93418 -2.59351 -14.6649 -51.2814 19.5823 -102.273 -43.7436 -18.1237 38.8108 -82.7512 -25.2992 86.5712 28.8522 53.8476 -45.4072 35.0666 21.608 -53.9397 -33.6473 20.3841 -70.0162 29.254 -1.24952 -1.95593 -1.16684 -0.368981 2.82299 
37.0795 22.1353 36.1215 -3.65087 -15.2255 -1.16656 -173.706 -5.50447 91.7925 -19.1552 35.277 1.26708 87.7943 22.0221 7.14472 17.0981 0.494597 -10.737 176.111 -10.7083 92.3364 -9.15673 -15.825 -3.02797 89.3421 -22.5807 -2.02807 51.1842 -9.7669 1.86782 0.862808 7.20521 -90.2644 12.4692 1.58853 -0.710996 0.798969 1.5557 -0.780251 -21.7437 1.72876 -0.20058 -1.7311 1.72875 -0.200583 98.3118 -8.04804 -94.3704 6.58878 -6.3035 -10.3679 -50.5829 24.8562 -105.384 -40.5221 -16.7661 39.1679 -82.8665 -27.2244 86.6584 21.377 57.1488 -32.8862 44.1363 20.4328 -63.4172 -34.3359 21.4334 -71.3326 33.8353 -0.739972 -1.69818 -3.08222 0.0393801 2.28 
37.1632 19.3291 37.0835 -3.49142 -15.4866 -1.20687 -173.641 -8.02409 91.5403 -18.6947 36.021 1.49817 87.3647 22.4486 8.59991 -8.39189 0.0280725 -19.6382 175.978 -12.5732 91.7937 -10.1697 -17.2156 -3.62041 89.6033 -22.6888 -2.10143 49.1505 -8.87796 -0.0884729 0.782852 7.13687 -90.2524 12.605 1.43478 -0.671893 0.93461 1.40382 -0.734404 -21.6067 1.57037 -0.209523 -1.59405 1.57037 -0.209516 98.6699 -7.41633 -93.4363 7.43388 -15.0583 -8.09482 -54.2606 31.0673 -103.158 -24.0462 -8.22617 31.6154 -82.8028 -27.0199 86.7563 13.0333 58.6543 -22.1817 44.0719 15.0922 -67.0443 -37.5084 20.5348 -64.1975 38.2849 -0.937378 -1.74016 -4.57507 -0.0675428 0.919857 
37.1234 17.386 38.0123 -3.02672 -14.6983 -0.495938 -173.376 -8.51865 92.2893 -18.5072 34.1319 1.73816 88.5767 21.8022 5.29795 5.81685 -0.987221 -12.2727 175.793 -12.9564 91.9559 -10.6342 -18.5449 -3.2669 88.3567 -21.7067 -2.32381 47.5358 -8.32716 2.46769 0.768684 6.97446 -90.2789 12.9304 1.39246 -0.726182 1.25993 1.35916 -0.786755 -21.2809 1.54631 -0.274018 -1.26822 1.54632 -0.27403 98.2201 -8.19578 -94.5941 8.57184 -13.0906 -2.78812 -56.4244 34.3386 -107.514 -40.539 -18.3413 39.4413 -82.6449 -27.2124 87.1061 5.23612 56.2378 -14.2093 49.3664 17.0351 -72.1989 -38.0962 21.0745 -64.5481 41.4384 -1.61009 -2.90222 -5.31568 -0.0898756 1.89155 
37.0161 16.0234 38.849 -2.78556 -14.1727 -0.50991 -173.597 -8.63231 92.174 -19.0067 34.9001 2.07179 87.4674 21.1837 5.8413 13.7251 -1.33379 -9.01879 175.44 -12.6879 91.3873 -12.0018 -20.3052 -3.35027 89.1231 -22.051 -2.37947 45.0353 -7.25901 1.76973 0.745812 6.84859 -90.243 13.1814 1.36313 -0.65598 1.51094 1.33295 -0.715333 -21.0297 1.49726 -0.215881 -1.01708 1.49725 -0.215882 97.9424 -9.11997 -95.1686 9.45687 -14.1262 0.689853 -57.2585 36.9043 -108.652 -40.373 -18.0551 42.2941 -83.0885 -28.3621 86.397 -0.77302 53.7823 -6.22449 52.1247 16.3818 -75.8348 -39.5269 21.2788 -62.9727 42.2462 -1.71986 -2.33807 -5.78452 -0.449414 1.23582 
36.8189 14.954 39.4847 -2.96326 -13.6334 -0.346239 -173.318 -9.01822 92.3961 -18.3739 31.5286 1.83363 88.6383 20.1166 1.73168 -14.5772 -3.04942 -18.9622 175.595 -12.9482 91.6398 -11.9203 -20.8006 -3.44332 87.8838 -21.1628 -2.68217 44.4801 -7.39386 6.61939 0.755187 6.77444 -90.2213 13.3294 1.39158 -0.618865 1.65905 1.363 -0.679523 -20.8819 1.51322 -0.17194 -0.869266 1.51323 -0.17194 98.57 -7.68601 -93.6639 13.9699 -18.9028 1.02744 -60.7212 40.5282 -105.504 -34.0128 -14.4095 40.5353 -82.7814 -27.3203 86.8463 -6.56938 50.4998 -1.67182 54.1486 17.2619 -78.4712 -39.5972 20.6306 -61.3464 42.7213 -1.99595 -2.56093 -5.27573 -0.582266 1.45768 
36.646 13.9922 39.9318 -3.27734 -13.1676 -0.202304 -173.187 -9.24509 92.1196 -18.1754 29.6919 1.58796 87.3327 19.8411 3.27857 10.5179 -4.63001 -5.88992 175.79 -13.0928 91.8601 -12.2711 -20.6057 -3.5362 88.3509 -20.9005 -1.55666 42.7947 -6.59527 4.35089 0.778635 6.71862 -90.2641 13.4419 1.41686 -0.710163 1.7715 1.38424 -0.771837 -20.7695 1.56478 -0.251409 -0.756903 1.56478 -0.251412 98.2039 -8.77456 -94.4825 14.5138 -16.7717 4.01036 -58.9452 42.1411 -109.052 -35.843 -15.2161 40.3604 -83.2191 -27.5081 85.9878 -11.3921 47.5996 3.91787 58.9766 17.0129 -82.2716 -40.101 21.5387 -62.7708 43.3007 -1.5343 -2.33753 -5.69519 -0.251067 1.27993 
36.5981 12.8477 40.2485 -2.49007 -12.9316 -0.0647056 -173.713 -10.092 91.4733 -17.963 29.1134 2.09806 86.1602 19.8224 5.2382 4.69654 -9.45204 -2.21723 175.521 -13.8095 91.7854 -11.9299 -20.5611 -3.3674 88.1776 -20.8661 -1.7016 42.6797 -6.68835 6.01453 0.712073 6.68396 -90.2813 13.5105 1.2762 -0.727763 1.83994 1.24293 -0.783235 -20.6998 1.4359 -0.310511 -0.687147 1.43592 -0.310501 98.4345 -8.32358 -93.9051 15.989 -16.0945 5.56011 -62.2002 45.2143 -108.468 -34.3153 -14.9661 41.6777 -83.0766 -28.1819 86.39 -12.6748 47.9781 7.18171 60.7359 14.1292 -83.8727 -41.009 22.1653 -62.9555 43.8871 -1.45308 -2.08151 -5.96658 -0.299218 1.25178 
36.4472 11.6085 40.4824 -2.16706 -12.9368 -0.102914 -173.743 -11.0642 91.3678 -17.5396 27.3753 2.24863 86.7373 19.4965 3.40716 1.41553 -12.7788 0.319407 175.605 -13.6787 91.8386 -13.7887 -20.9874 -3.58395 87.3238 -19.9833 -1.87774 45.3064 -7.45786 3.04443 0.711318 6.64846 -90.3357 13.5822 1.24794 -0.834471 1.91152 1.21001 -0.888598 -20.6277 1.44103 -0.420776 -0.615091 1.44103 -0.420777 98.2031 -9.2138 -94.3459 13.813 -15.0805 7.76745 -60.6501 46.0529 -110.588 -28.4855 -13.1329 44.602 -83.3222 -26.9961 85.6885 -16.7824 47.8641 10.2356 60.237 12.3243 -84.1109 -41.6763 21.754 -61.127 43.5752 -0.923899 -1.10094 -5.66417 -0.303823 0.597692 
36.3968 10.4657 40.5924 -1.89509 -13.2474 -0.130333 -173.442 -12.1167 91.4724 -17.3287 27.0005 2.04256 87.2922 19.6063 2.59526 2.59845 -12.9432 1.34923 175.535 -14.515 91.874 -14.5306 -21.5581 -3.78868 87.2748 -20.6351 -3.62799 44.3539 -7.05544 2.74616 0.720384 6.65027 -90.3336 13.5785 1.26703 -0.832539 1.90787 1.22916 -0.887506 -20.6316 1.45865 -0.413204 -0.618894 1.45865 -0.413199 98.0845 -9.7119 -94.5584 13.4485 -13.8585 9.50751 -58.7237 47.4417 -113.467 -35.2758 -15.4421 41.7741 -83.6849 -26.6933 84.8918 -18.7673 49.9027 13.7003 59.0696 8.36824 -83.6346 -42.8731 21.7776 -59.633 43.1987 -1.40916 -1.82034 -4.87374 -0.402119 1.60372 
36.4133 9.7464 40.5818 -0.842034 -13.6067 -0.0578239 -173.496 -12.8037 91.4505 -17.9985 26.3427 2.27978 88.5657 20.1465 1.7947 8.89618 -9.14024 0.579806 175.236 -15.6046 91.8073 -13.9939 -20.4882 -3.50107 87.567 -20.7387 -3.12684 44.9014 -7.216 1.93812 0.599812 6.63563 -90.3367 13.6064 1.02619 -0.80822 1.93561 0.989628 -0.852601 -20.602 1.22164 -0.462411 -0.589353 1.22165 -0.462411 97.9943 -9.02588 -95.0387 14.1328 -13.9029 10.6199 -57.1767 47.6893 -114.875 -34.929 -15.0464 41.0564 -83.9529 -27.5596 84.5139 -19.9935 51.2451 16.7267 57.9852 5.12941 -83.6441 -44.3423 21.9541 -58.2015 42.4958 -0.996212 -0.771921 -4.36895 -0.540738 0.0779713 
36.4328 9.50826 40.5423 -0.040172 -13.8229 -0.0164411 -173.564 -13.0585 91.6221 -18.1125 27.2593 2.52244 88.8543 20.1005 1.23045 7.14346 -8.78081 -1.27067 174.951 -16.1381 91.6366 -13.9778 -20.3351 -3.37143 88.1332 -21.1048 -2.98797 43.2081 -6.59083 2.61452 0.484768 6.64009 -90.2801 13.5961 0.825561 -0.668349 1.92521 0.795351 -0.704042 -20.6114 0.988259 -0.389327 -0.598816 0.988257 -0.389319 97.7196 -9.67592 -95.6605 13.8315 -13.1517 11.0362 -57.2471 47.833 -115.341 -35.9334 -15.8131 41.9114 -83.7105 -26.3447 84.7689 -22.2558 51.3579 17.7394 57.5296 3.66643 -83.812 -45.7232 22.2384 -57.1709 42.2583 -1.5031 -2.13448 -3.75737 -0.325841 0.904832 
36.3767 9.47846 40.4838 0.326205 -13.8285 -0.102371 -173.64 -13.5299 91.8227 -17.5208 29.724 2.76181 88.281 20.5031 2.83526 4.51621 -6.83842 -5.84409 174.876 -15.6835 91.2523 -14.9064 -20.6015 -3.59016 88.8131 -20.7998 -1.6065 43.8691 -6.8393 2.47793 0.467273 6.64261 -90.2643 13.5909 0.798547 -0.633207 1.92002 0.769904 -0.667743 -20.6166 0.951922 -0.363907 -0.603957 0.951928 -0.363919 97.1648 -11.002 -96.8476 12.8311 -12.458 12.6173 -55.0327 47.3668 -117.022 -36.2655 -15.3612 40.3512 -83.9082 -26.2862 84.3506 -23.5329 51.7746 18.9759 56.9586 1.62022 -83.7456 -46.9503 22.5318 -56.3778 42.5277 -1.51894 -2.17094 -3.64433 -0.320347 1.43941 
36.3775 9.38312 40.4378 0.61011 -13.9404 -0.262026 -173.716 -12.861 92.2234 -18.8784 32.4426 3.00417 88.1054 20.469 3.03817 8.06139 -5.94996 -4.95377 174.454 -15.6192 90.6104 -15.5307 -22.0878 -3.63196 89.5608 -21.4055 -1.80857 42.7347 -6.51405 3.67581 0.475358 6.6738 -90.2221 13.5286 0.835257 -0.552643 1.85782 0.81013 -0.588878 -20.6792 0.962731 -0.276053 -0.666508 0.962729 -0.276036 97.8404 -10.3364 -95.0937 13.8253 -13.4499 11.5346 -57.2646 48.7096 -115.517 -34.8221 -15.0456 41.2501 -83.9675 -25.8937 84.146 -24.8049 52.6538 20.1034 56.2159 -0.764871 -83.6786 -48.3042 22.6334 -55.0954 42.8679 -2.16321 -3.21409 -3.53102 -0.383477 2.68864 
